<?xml version="1.0" encoding="utf-8"?>
<!-- Generator: Adobe Illustrator 16.0.4, SVG Export Plug-In . SVG Version: 6.00 Build 0)  -->
<!DOCTYPE svg PUBLIC "-//W3C//DTD SVG 1.1//EN" "http://www.w3.org/Graphics/SVG/1.1/DTD/svg11.dtd">
<svg version="1.1" id="logo" xmlns="http://www.w3.org/2000/svg" xmlns:xlink="http://www.w3.org/1999/xlink" x="0px" y="0px"
	 width="280px" height="36px" viewBox="0 0 280 36" enable-background="new 0 0 280 36" xml:space="preserve">
<rect x="-52.833" y="-39.167" display="none" stroke="#FFFFFF" stroke-miterlimit="10" width="440.667" height="194.333"/>
<g>
	<g id="logo_1_">
		<g id="white">
			<path fill="#FFFFFF" d="M32.8,27.715c-0.688-0.158-1.418-0.258-2.157-0.258c-1.265,0-2.414,0.219-3.263,0.574
				c-0.092,0.045-0.161,0.143-0.161,0.254c0,0.041,0.011,0.082,0.025,0.117c0.101,0.289-0.064,0.604-0.885,0.785
				c-1.216,0.268-1.986,1.523-2.426,1.939c-0.518,0.49-1.976,0.791-1.756,0.498c0.171-0.227,0.829-0.941,1.229-1.711
				c0.356-0.689,0.674-0.885,1.112-1.541c0.127-0.191,0.627-0.869,0.772-1.404c0.163-0.523,0.109-1.178,0.17-1.449
				c0.09-0.391,0.458-1.234,0.486-1.713c0.018-0.27-1.126,0.387-1.668,0.387s-1.07-0.326-1.557-0.348
				c-0.598-0.027-0.984,0.461-1.527,0.377c-0.308-0.049-0.571-0.322-1.111-0.344c-0.771-0.027-1.712,0.428-3.483,0.373
				c-1.74-0.057-3.349-2.201-3.568-2.541c-0.256-0.399-0.571-0.399-0.913-0.087c-0.344,0.313-0.765,0.067-0.886-0.144
				c-0.228-0.399-0.837-1.566-1.784-1.812c-1.307-0.339-1.97,0.724-1.883,1.57c0.088,0.857,0.641,1.1,0.898,1.557
				c0.257,0.455,0.389,0.748,0.872,0.951c0.343,0.145,0.47,0.355,0.369,0.637c-0.091,0.244-0.447,0.301-0.682,0.311
				c-0.497,0.023-0.847-0.111-1.102-0.271c-0.296-0.189-0.536-0.451-0.796-0.896c-0.299-0.49-0.77-0.707-1.318-0.707
				c-0.262,0-0.506,0.07-0.724,0.182c-0.86,0.449-1.883,0.713-2.985,0.713H0.852c2.384,7.068,9.069,12.16,16.941,12.16
				C24.084,35.873,29.616,32.627,32.8,27.715z"/>
		</g>
		<g id="black">
			<g>
				<path fill="#FFFFFF" d="M35.488,26.76h0.162l0.244,0.4h0.156l-0.263-0.408c0.137-0.018,0.24-0.088,0.24-0.25
					c0-0.184-0.109-0.264-0.327-0.264h-0.35v0.922h0.139L35.488,26.76L35.488,26.76z M35.488,26.643v-0.287h0.191
					c0.096,0,0.2,0.021,0.2,0.135c0,0.143-0.105,0.152-0.222,0.152H35.488L35.488,26.643z"/>
				<path fill="#FFFFFF" d="M36.557,26.701c0,0.496-0.405,0.902-0.902,0.902c-0.5,0-0.904-0.406-0.904-0.902
					c0-0.5,0.405-0.904,0.904-0.904C36.152,25.797,36.557,26.201,36.557,26.701z M35.655,25.957c-0.412,0-0.744,0.334-0.744,0.742
					c0,0.41,0.333,0.744,0.744,0.744c0.409,0,0.743-0.332,0.743-0.744C36.397,26.291,36.064,25.957,35.655,25.957z"/>
			</g>
			<g>
				<path d="M32.8,27.717c-0.688-0.158-1.418-0.258-2.157-0.258c-1.265,0-2.414,0.219-3.263,0.572
					c-0.092,0.047-0.161,0.143-0.161,0.256c0,0.039,0.011,0.082,0.025,0.115c0.101,0.291-0.064,0.605-0.885,0.785
					c-1.216,0.27-1.986,1.523-2.426,1.941c-0.518,0.49-1.976,0.793-1.756,0.5c0.171-0.229,0.829-0.943,1.229-1.713
					c0.356-0.688,0.674-0.885,1.112-1.539c0.127-0.193,0.627-0.871,0.772-1.406c0.163-0.523,0.109-1.18,0.17-1.449
					c0.09-0.389,0.458-1.234,0.486-1.713c0.018-0.27-1.126,0.385-1.668,0.385s-1.07-0.324-1.557-0.346
					c-0.598-0.029-0.984,0.461-1.527,0.375c-0.308-0.049-0.571-0.322-1.111-0.344c-0.771-0.027-1.712,0.43-3.483,0.373
					c-1.74-0.057-3.349-2.199-3.568-2.539c-0.256-0.401-0.571-0.401-0.913-0.088c-0.344,0.312-0.765,0.066-0.886-0.144
					c-0.228-0.399-0.837-1.568-1.784-1.812c-1.307-0.34-1.97,0.724-1.883,1.571c0.088,0.855,0.641,1.098,0.898,1.553
					c0.257,0.457,0.389,0.752,0.872,0.955c0.343,0.143,0.47,0.355,0.369,0.635c-0.091,0.246-0.447,0.301-0.682,0.312
					c-0.497,0.023-0.847-0.113-1.102-0.275c-0.296-0.188-0.536-0.449-0.796-0.895c-0.299-0.49-0.77-0.707-1.318-0.707
					c-0.262,0-0.506,0.07-0.724,0.182c-0.86,0.449-1.883,0.713-2.985,0.713H0.852C0.25,21.92-0.078,19.999-0.078,18
					c0-9.872,8.003-17.874,17.874-17.874c9.873,0,17.874,8.001,17.874,17.874C35.669,21.582,34.615,24.918,32.8,27.717z"/>
			</g>
			<path d="M44.78,19.127c0-1.639-0.034-2.846-0.099-3.934h2.681l0.114,2.325h0.089c0.601-1.723,2.03-2.602,3.353-2.602
				c0.303,0,0.478,0.011,0.726,0.067V17.9c-0.29-0.057-0.561-0.09-0.933-0.09c-1.475,0-2.5,0.939-2.775,2.342
				c-0.053,0.272-0.08,0.6-0.08,0.934v6.351h-3.099L44.78,19.127z"/>
			<path d="M55.381,22.148c0.082,2.219,1.798,3.189,3.782,3.189c1.424,0,2.442-0.223,3.379-0.566L63,26.902
				c-1.046,0.445-2.501,0.777-4.279,0.777c-3.976,0-6.306-2.457-6.306-6.208c0-3.38,2.049-6.578,5.989-6.578
				c3.982,0,5.276,3.274,5.276,5.956c0,0.576-0.051,1.036-0.108,1.323L55.381,22.148z M60.766,19.992
				c0.014-1.135-0.479-2.985-2.554-2.985c-1.905,0-2.699,1.73-2.837,2.985H60.766z"/>
			<path d="M73.926,22.129c0,0.324-0.021,0.627-0.093,0.902c-0.311,1.34-1.409,2.203-2.673,2.203c-1.949,0-3.065-1.645-3.065-3.895
				c0-2.271,1.106-4.029,3.1-4.029c1.394,0,2.389,0.981,2.663,2.174c0.053,0.25,0.07,0.562,0.07,0.808L73.926,22.129L73.926,22.129z
				 M77.021,10.478l-3.096-0.874v6.907h-0.052c-0.547-0.905-1.755-1.595-3.431-1.595c-2.945,0-5.508,2.437-5.49,6.54
				c0,3.763,2.315,6.257,5.239,6.257c1.767,0,3.244-0.842,3.976-2.213h0.055l0.137,1.939h2.758
				c-0.056-0.834-0.101-2.184-0.101-3.436V10.478H77.021z"/>
			<path d="M85.209,14.902c-0.933,0-1.769,0.269-2.471,0.702c-0.729,0.427-1.321,1.086-1.675,1.768h-0.048v-5.732l-1.214-0.358
				v16.156h1.214v-7.496c0-0.497,0.037-0.843,0.163-1.207c0.525-1.526,1.96-2.776,3.697-2.776c2.51,0,3.378,2.012,3.378,4.22v7.258
				h1.21v-7.392C89.466,15.481,86.37,14.902,85.209,14.902z"/>
			<path d="M100.344,24.525c0,0.971,0.039,1.975,0.179,2.912h-1.117l-0.178-1.756h-0.056c-0.595,0.943-1.959,2.033-3.907,2.033
				c-2.466,0-3.613-1.734-3.613-3.367c0-2.828,2.497-4.533,7.483-4.48v-0.328c0-1.212-0.236-3.629-3.136-3.609
				c-1.071,0-2.19,0.287-3.076,0.912L92.54,15.96c1.12-0.758,2.485-1.059,3.594-1.059c3.538,0,4.214,2.656,4.214,4.844v4.78H100.344
				z M99.132,20.887c-2.668-0.076-6.193,0.328-6.193,3.271c0,1.76,1.162,2.553,2.44,2.553c2.042,0,3.203-1.266,3.625-2.457
				c0.089-0.264,0.127-0.525,0.127-0.734V20.887L99.132,20.887z"/>
			<path d="M105.17,12.481v2.701h3.494v0.982h-3.494v7.965c0,1.559,0.485,2.535,1.801,2.535c0.631,0,1.077-0.082,1.392-0.193
				l0.147,0.939c-0.395,0.166-0.952,0.295-1.691,0.295c-0.893,0-1.634-0.281-2.115-0.871c-0.555-0.643-0.745-1.672-0.745-2.922
				v-7.748h-2.068v-0.983h2.068v-2.253L105.17,12.481z"/>
			<g>
				<path d="M110.193,26.785h0.163l0.242,0.398h0.157l-0.262-0.406c0.136-0.018,0.239-0.088,0.239-0.252
					c0-0.184-0.109-0.264-0.326-0.264h-0.351v0.922h0.14v-0.398H110.193z M110.193,26.666v-0.287h0.191c0.095,0,0.2,0.021,0.2,0.137
					c0,0.143-0.105,0.15-0.225,0.15H110.193L110.193,26.666z"/>
				<path d="M111.263,26.723c0,0.5-0.405,0.904-0.904,0.904c-0.496,0-0.903-0.404-0.903-0.904c0-0.498,0.407-0.902,0.903-0.902
					C110.859,25.82,111.263,26.225,111.263,26.723z M110.358,25.98c-0.411,0-0.743,0.334-0.743,0.742
					c0,0.41,0.333,0.742,0.743,0.742c0.411,0,0.744-0.332,0.744-0.742C111.103,26.314,110.77,25.98,110.358,25.98z"/>
			</g>
			<path d="M21.732,26.076c0.091,0.09,0.25,0.393,0.056,0.775c-0.109,0.203-0.225,0.344-0.435,0.512
				c-0.251,0.201-0.743,0.434-1.418,0.008c-0.362-0.23-0.383-0.307-0.884-0.242c-0.358,0.047-0.499-0.314-0.372-0.613
				c0.129-0.303,0.657-0.543,1.313-0.16c0.296,0.174,0.755,0.541,1.159,0.217c0.167-0.133,0.267-0.223,0.499-0.49
				c0.011-0.014,0.024-0.018,0.042-0.018C21.708,26.062,21.723,26.068,21.732,26.076z"/>
		</g>
		<path id="red" fill="#CC0000" d="M16.405,8.637c-2.064,0.149-2.278,0.372-2.666,0.783c-0.545,0.581-1.264-0.753-1.264-0.753
			c-0.431-0.09-0.953-0.785-0.67-1.435c0.276-0.642,0.79-0.45,0.951-0.25c0.196,0.244,0.614,0.641,1.155,0.628
			c0.542-0.014,1.168-0.127,2.039-0.127c0.884,0,1.479,0.33,1.511,0.613C17.488,8.338,17.389,8.566,16.405,8.637z M18.573,5.225
			c-0.002,0-0.005,0-0.009,0c-0.033,0-0.058-0.023-0.058-0.054c0-0.02,0.013-0.04,0.033-0.05c0.4-0.211,0.997-0.38,1.681-0.449
			c0.205-0.022,0.406-0.033,0.599-0.034c0.034,0,0.068,0,0.102,0c1.145,0.026,2.062,0.481,2.048,1.016
			c-0.014,0.537-0.953,0.95-2.099,0.924c-0.371-0.009-0.719-0.063-1.018-0.148c-0.036-0.01-0.061-0.041-0.061-0.075
			c0-0.036,0.025-0.067,0.061-0.076c0.715-0.166,1.198-0.438,1.164-0.692c-0.044-0.339-0.98-0.524-2.087-0.412
			C18.806,5.191,18.688,5.208,18.573,5.225z M27.882,13.245c-0.177,0.594-0.428,1.353-1.545,1.927
			c-0.164,0.083-0.225-0.054-0.15-0.182c0.422-0.718,0.498-0.898,0.621-1.18c0.171-0.416,0.262-1.003-0.08-2.233
			c-0.673-2.419-2.075-5.653-3.095-6.702c-0.984-1.013-2.767-1.297-4.377-0.885c-0.595,0.153-1.754,0.756-3.907,0.271
			c-3.726-0.839-4.278,1.027-4.491,1.838c-0.213,0.813-0.728,3.122-0.728,3.122c-0.17,0.941-0.394,2.577,5.39,3.679
			c2.695,0.512,2.832,1.208,2.951,1.709c0.215,0.899,0.556,1.412,0.941,1.668c0.384,0.259,0,0.471-0.426,0.514
			c-1.147,0.12-5.39-1.097-7.899-2.522C9.035,13.017,9,11.887,9.471,10.929c-3.101-0.335-5.43,0.291-5.851,1.758
			c-0.726,2.52,5.54,6.824,12.671,8.985c7.485,2.266,15.185,0.684,16.041-4.022C32.719,15.511,30.918,13.929,27.882,13.245z"/>
	</g>
	<line fill="none" stroke="#000000" stroke-miterlimit="10" x1="123.502" y1="9.383" x2="123.502" y2="31.523"/>
	<g>
		<path d="M145.326,27.575l-1.012-2.869h-4.71l-1.011,2.869h-2.76l4.931-12.878h2.502l4.895,12.878H145.326z M142.604,19.921
			c-0.258-0.754-0.516-1.526-0.645-2.005c-0.129,0.479-0.387,1.251-0.644,2.005l-0.828,2.336h2.944L142.604,19.921z"/>
		<path d="M155.151,23.013h-2.833v4.562h-2.576V14.697h5.63c2.429,0,4.435,1.343,4.435,4.084
			C159.808,21.762,157.82,23.013,155.151,23.013z M155.281,17.199h-2.963v3.312h2.999c1.197,0,1.841-0.552,1.841-1.674
			C157.158,17.714,156.422,17.199,155.281,17.199z"/>
		<path d="M166.818,23.013h-2.834v4.562h-2.575V14.697h5.631c2.428,0,4.433,1.343,4.433,4.084
			C171.473,21.762,169.485,23.013,166.818,23.013z M166.946,17.199h-2.962v3.312h2.999c1.196,0,1.84-0.552,1.84-1.674
			C168.823,17.714,168.087,17.199,166.946,17.199z"/>
		<path d="M178.158,27.575V14.697h2.574v10.339h6.459v2.539H178.158z"/>
		<path d="M197.796,27.575l-1.013-2.869h-4.71l-1.013,2.869h-2.759l4.93-12.878h2.502l4.895,12.878H197.796z M195.072,19.921
			c-0.259-0.754-0.516-1.526-0.644-2.005c-0.13,0.479-0.387,1.251-0.646,2.005l-0.827,2.336h2.944L195.072,19.921z"/>
		<path d="M206.656,27.777c-3.108,0-5.206-2.098-5.206-5.85v-7.231h2.575v7.193c0,2.062,0.994,3.367,2.631,3.367
			c1.638,0,2.65-1.269,2.65-3.329v-7.231h2.576v7.193C211.883,25.625,209.932,27.777,206.656,27.777z"/>
		<path d="M222.582,27.575l-4.729-7.028c-0.312-0.479-0.734-1.123-0.901-1.454c0,0.479,0.038,2.098,0.038,2.815v5.667h-2.54V14.697
			h2.467l4.562,6.807c0.312,0.478,0.735,1.123,0.901,1.453c0-0.479-0.037-2.098-0.037-2.814v-5.446h2.539v12.878H222.582z"/>
		<path d="M234.944,18.45c-0.46-0.883-1.197-1.398-2.355-1.398c-1.933,0-3.036,1.692-3.036,4.084c0,2.318,1.122,4.086,3.054,4.086
			c1.159,0,1.84-0.499,2.521-1.639l2.171,1.287c-0.881,1.82-2.428,2.907-4.765,2.907c-3.365,0-5.63-2.575-5.63-6.642
			c0-3.919,2.356-6.642,5.722-6.642c2.43,0,3.901,1.177,4.711,2.852L234.944,18.45z"/>
		<path d="M246.905,27.575v-5.408h-5.279v5.408h-2.576V14.697h2.576v4.931h5.279v-4.931h2.577v12.878H246.905z"/>
		<path d="M252.141,27.575V14.697h8.941v2.52h-6.365v2.227h3.697v2.502h-3.697v3.109h6.642v2.521H252.141z"/>
		<path d="M270.835,27.575l-2.302-4.636h-2.594v4.636h-2.576V14.697h5.999c2.428,0,4.434,1.343,4.434,4.084
			c0,1.932-0.828,3.147-2.466,3.791l2.466,5.004H270.835z M269.306,17.199h-3.366v3.312h3.366c1.197,0,1.841-0.552,1.841-1.674
			C271.146,17.677,270.446,17.199,269.306,17.199z"/>
	</g>
</g>
</svg>
